/*
 * songofstorms.h
 *
 *  Created on: Feb 1, 2019
 *      Author: Nathaniel Bajakian
 */


#ifndef SONGOFSTORMS_H_
#define SONGOFSTORMS_H_
#include "notes.h"

Note SONGOFSTORMS [] = {
    /*  SIXTEEN = 1; EIGHT = 2; FOURTH = 4; HALF = 8; FULL = 16*/
    {NOTE_D4,  2},
    {NOTE_F4,  2},
    {NOTE_D5,  8},

    {NOTE_D4,  2},
    {NOTE_F4,  2},
    {NOTE_D5,  8},

    {NOTE_E5,  6},
    {NOTE_F5,  2},
    {NOTE_E5,  2},
    {NOTE_F5,  2}, //10
    {NOTE_E5,  2},
    {NOTE_C5,  2}, //Corrected from D5
    {NOTE_A4,  7},
    {REST, 1},

    {NOTE_A4,  4},
    {NOTE_D4,  4},
    {NOTE_F4,  2},
    {NOTE_G4,  2},

    {NOTE_A4,  9},
    {REST, 1},    //20

    {NOTE_A4,  4},
    {NOTE_D4,  4},
    {NOTE_F4,  2},
    {NOTE_G4,  2},

    {NOTE_F4,  10},//25     //Midpoint, start over

    {NOTE_D4,  2},
    {NOTE_F4,  2},
    {NOTE_D5,  8},

    {NOTE_D4,  2},
    {NOTE_F4,  2},
    {NOTE_D5,  8},

    {NOTE_E5,  6},
    {NOTE_F5,  2},
    {NOTE_E5,  2},
    {NOTE_F5,  2}, //35

    {NOTE_E5,  2},
    {NOTE_C5,  2},
    {NOTE_A4,  7},
    {REST, 1},

    {NOTE_A4,  4},
    {NOTE_D4,  4},
    {NOTE_F4,  2},
    {NOTE_G4,  2},

    {NOTE_A4,  7},
    {REST, 1},     //45

    {NOTE_A4,  4},
    {NOTE_D3,  4},
    {NOTE_D4,  3},
    {REST, 1},
    {NOTE_D4,  4},

    {REST, 2},
    {NOTE_E3, 2},
    {NOTE_E4, 4},

    {REST, 4},
    {NOTE_F4, 4},
    {NOTE_F4, 4},

    {REST, 2},
    {NOTE_E3, 2},
    {NOTE_E4, 4},

    {REST, 4},
    {NOTE_D4, 4},
    {NOTE_D4, 4},

    {REST, 2},
    {NOTE_E4, 2},
    {NOTE_E5, 8},

    {REST, 4},
    {NOTE_F5, 3},
    {REST, 1},
    {NOTE_F5, 4},

    {REST, 2},
    {NOTE_E4, 2},
    {NOTE_E5, 8},

    {NOTE_D5, 2},
    {NOTE_F5, 2},
    {NOTE_D6, 8},

    {NOTE_D5, 2},
    {NOTE_F5, 2},
    {NOTE_D6, 8},

    {NOTE_E6, 6},
    {NOTE_F6, 2},
    {NOTE_E6, 2},
    {NOTE_F6, 2},

    {NOTE_E6, 2},
    {NOTE_C6, 2},
    {NOTE_A5, 8},

    {NOTE_A5, 4},
    {NOTE_D5, 4},
    {NOTE_F5, 2},
    {NOTE_G5, 2},

    {NOTE_A5, 11},
    {REST, 1},

    {NOTE_A5, 4},
    {NOTE_D5, 4},
    {NOTE_F5, 1},
    {REST, 1},
    {NOTE_F5, 2},

    {NOTE_E5, 12},

    {NOTE_D5, 2},
    {NOTE_F5, 2},
    {NOTE_D6, 8},

    {NOTE_D5, 2},
    {NOTE_F5, 2},
    {NOTE_D6, 8},

    {NOTE_E6, 6},
    {NOTE_F6, 2},
    {NOTE_E6, 2},
    {NOTE_F6, 2},

    {NOTE_E6, 2},
    {NOTE_C6, 2},
    {NOTE_A5, 8},

    {NOTE_A5, 4},
    {NOTE_D5, 4},
    {NOTE_F5, 2},
    {NOTE_G5, 2},

    {NOTE_A5, 3},
    {REST, 1},
    {NOTE_A5, 3},
    {REST, 1},
    {NOTE_A4, 10}, //119
    {NOTE_E5, 12}
    };



#endif /* SONGOFSTORMS_H_ */
